{
 "cells": [
  {
   "cell_type": "markdown",
   "id": "c13350e5",
   "metadata": {},
   "source": [
    "## From EXR to YUV\n",
    "* .exr images from ftp://svtopencontent.svt.se\n",
    "* 1500 images at 50 fps = 30sec\n",
    "* inside a .yuv raw video with 4k resolution and yuv420p sampling"
   ]
  },
  {
   "cell_type": "code",
   "execution_count": 2,
   "id": "b26e6664",
   "metadata": {},
   "outputs": [
    {
     "name": "stderr",
     "output_type": "stream",
     "text": [
      "ffmpeg version N-106635-g83e1a1de88 Copyright (c) 2000-2022 the FFmpeg developers\n",
      "  built with gcc 9 (Ubuntu 9.4.0-1ubuntu1~20.04.1)\n",
      "  configuration: --prefix=/home/ubuntu/ffmpeg_build --pkg-config-flags=--static --extra-cflags=-I/home/ubuntu/ffmpeg_build/include --extra-ldflags=-L/home/ubuntu/ffmpeg_build/lib --extra-libs='-lpthread -lm' --ld=g++ --bindir=/home/ubuntu/bin --enable-gpl --enable-gnutls --enable-libaom --enable-libass --enable-libfdk-aac --enable-libfreetype --enable-libmp3lame --enable-libopus --enable-libsvtav1 --enable-libdav1d --enable-libvorbis --enable-libvpx --enable-libx264 --enable-libx265 --enable-libvmaf --enable-version3 --enable-nonfree\n",
      "  libavutil      57. 24.101 / 57. 24.101\n",
      "  libavcodec     59. 26.100 / 59. 26.100\n",
      "  libavformat    59. 22.100 / 59. 22.100\n",
      "  libavdevice    59.  6.100 / 59.  6.100\n",
      "  libavfilter     8. 33.100 /  8. 33.100\n",
      "  libswscale      6.  6.100 /  6.  6.100\n",
      "  libswresample   4.  6.100 /  4.  6.100\n",
      "  libpostproc    56.  5.100 / 56.  5.100\n",
      "Input #0, image2, from 'test_vids/src_midnight/midnight_sun_%04d.exr':\n",
      "  Duration: 00:00:30.00, start: 0.000000, bitrate: N/A\n",
      "  Stream #0:0: Video: exr, gbrpf32le, 3840x2160 [SAR 1:1 DAR 16:9], 50 fps, 50 tbr, 50 tbn\n",
      "Stream mapping:\n",
      "  Stream #0:0 -> #0:0 (exr (native) -> rawvideo (native))\n",
      "Press [q] to stop, [?] for help\n",
      "Output #0, rawvideo, to 'test_vids/midnight.yuv':\n",
      "  Metadata:\n",
      "    encoder         : Lavf59.22.100\n",
      "  Stream #0:0: Video: rawvideo (I420 / 0x30323449), yuv420p(tv, progressive), 3840x2160 [SAR 1:1 DAR 16:9], q=2-31, 4976640 kb/s, 50 fps, 50 tbn\n",
      "    Metadata:\n",
      "      encoder         : Lavc59.26.100 rawvideo\n",
      "frame= 1500 fps=3.6 q=-0.0 Lsize=18225000kB time=00:00:30.00 bitrate=4976640.0kbits/s speed=0.0723x    \n",
      "video:18225000kB audio:0kB subtitle:0kB other streams:0kB global headers:0kB muxing overhead: 0.000000%\n"
     ]
    },
    {
     "data": {
      "text/plain": [
       "0"
      ]
     },
     "execution_count": 2,
     "metadata": {},
     "output_type": "execute_result"
    }
   ],
   "source": [
    "import subprocess\n",
    "c_seq = \"ffmpeg -y -start_number 180000 -framerate 50 -i test_vids/src_midnight/midnight_sun_%04d.exr \\\n",
    "        -c:v rawvideo -pix_fmt yuv420p -s 3840x2160 -r 50 test_vids/midnight.yuv\"\n",
    "subprocess.call(c_seq, shell=True)"
   ]
  },
  {
   "cell_type": "markdown",
   "id": "baa6a520",
   "metadata": {},
   "source": [
    "## From YUV to YUV multires\n",
    "the .yuv reference uncompressed file is downsized to 5 more resolutions"
   ]
  },
  {
   "cell_type": "code",
   "execution_count": null,
   "id": "5e3a4089",
   "metadata": {},
   "outputs": [],
   "source": [
    "import numpy as np\n",
    "import subprocess\n",
    "source = \"smithy\"\n",
    "res_widths = [3840, 2560, 1920, 1280, 1024, 640]\n",
    "res_heights = [2160, 1440, 1080, 720, 576, 360]\n",
    "for i in range(1, res_widths.size):\n",
    "    path = \"test_vids/downsampled/\" + source + \"_\" + str(res_widths[i-1]) + \".yuv\"\n",
    "    out = \"test_vids/downsampled/\" + source + \"_\" + str(res_widths[i]) + \".yuv\"\n",
    "    command = f\"ffmpeg -f rawvideo -video_size {res_widths[i-1]}x{res_heights[i-1]} -r 50 -pixel_format yuv420p \\\n",
    "    -i {path} -f rawvideo -c:v rawvideo -filter:v scale={res_widths[i]}x{res_heights[i]} -pix_fmt yuv420p {out}\"\n",
    "    subprocess.call(command, shell=True)"
   ]
  },
  {
   "cell_type": "markdown",
   "id": "4c767856",
   "metadata": {},
   "source": [
    "## From YUV to H264 AVC"
   ]
  },
  {
   "cell_type": "code",
   "execution_count": 3,
   "id": "1bd6facd",
   "metadata": {},
   "outputs": [
    {
     "name": "stderr",
     "output_type": "stream",
     "text": [
      "ffmpeg version N-106635-g83e1a1de88 Copyright (c) 2000-2022 the FFmpeg developers\n",
      "  built with gcc 9 (Ubuntu 9.4.0-1ubuntu1~20.04.1)\n",
      "  configuration: --prefix=/home/ubuntu/ffmpeg_build --pkg-config-flags=--static --extra-cflags=-I/home/ubuntu/ffmpeg_build/include --extra-ldflags=-L/home/ubuntu/ffmpeg_build/lib --extra-libs='-lpthread -lm' --ld=g++ --bindir=/home/ubuntu/bin --enable-gpl --enable-gnutls --enable-libaom --enable-libass --enable-libfdk-aac --enable-libfreetype --enable-libmp3lame --enable-libopus --enable-libsvtav1 --enable-libdav1d --enable-libvorbis --enable-libvpx --enable-libx264 --enable-libx265 --enable-libvmaf --enable-version3 --enable-nonfree\n",
      "  libavutil      57. 24.101 / 57. 24.101\n",
      "  libavcodec     59. 26.100 / 59. 26.100\n",
      "  libavformat    59. 22.100 / 59. 22.100\n",
      "  libavdevice    59.  6.100 / 59.  6.100\n",
      "  libavfilter     8. 33.100 /  8. 33.100\n",
      "  libswscale      6.  6.100 /  6.  6.100\n",
      "  libswresample   4.  6.100 /  4.  6.100\n",
      "  libpostproc    56.  5.100 / 56.  5.100\n",
      "[rawvideo @ 0x55ef7ec854c0] Estimating duration from bitrate, this may be inaccurate\n",
      "Input #0, rawvideo, from 'test_vids/refs/forest.yuv':\n",
      "  Duration: 00:00:30.00, start: 0.000000, bitrate: 4976640 kb/s\n",
      "  Stream #0:0: Video: rawvideo (I420 / 0x30323449), yuv420p, 3840x2160, 4976640 kb/s, 50 tbr, 50 tbn\n",
      "Stream mapping:\n",
      "  Stream #0:0 -> #0:0 (rawvideo (native) -> h264 (libx264))\n",
      "Press [q] to stop, [?] for help\n",
      "[libx264 @ 0x55ef7ec92180] using cpu capabilities: MMX2 SSE2Fast SSSE3 SSE4.2 AVX FMA3 BMI2 AVX2\n",
      "[libx264 @ 0x55ef7ec92180] profile High, level 5.2\n",
      "[libx264 @ 0x55ef7ec92180] 264 - core 155 r2917 0a84d98 - H.264/MPEG-4 AVC codec - Copyleft 2003-2018 - http://www.videolan.org/x264.html - options: cabac=1 ref=3 deblock=1:0:0 analyse=0x3:0x113 me=hex subme=7 psy=1 psy_rd=1.00:0.00 mixed_ref=1 me_range=16 chroma_me=1 trellis=1 8x8dct=1 cqm=0 deadzone=21,11 fast_pskip=1 chroma_qp_offset=-2 threads=12 lookahead_threads=2 sliced_threads=0 nr=0 decimate=1 interlaced=0 bluray_compat=0 constrained_intra=0 bframes=3 b_pyramid=2 b_adapt=1 b_bias=0 direct=1 weightb=1 open_gop=0 weightp=2 keyint=250 keyint_min=25 scenecut=40 intra_refresh=0 rc_lookahead=40 rc=crf mbtree=1 crf=10.0 qcomp=0.60 qpmin=0 qpmax=69 qpstep=4 ip_ratio=1.40 aq=1:1.00\n",
      "Output #0, mp4, to 'test_vids/encoded/forest/forestAVC_cf10.mp4':\n",
      "  Metadata:\n",
      "    encoder         : Lavf59.22.100\n",
      "  Stream #0:0: Video: h264 (avc1 / 0x31637661), yuv420p(progressive), 3840x2160, q=2-31, 50 fps, 12800 tbn\n",
      "    Metadata:\n",
      "      encoder         : Lavc59.26.100 libx264\n",
      "    Side data:\n",
      "      cpb: bitrate max/min/avg: 0/0/0 buffer size: 0 vbv_delay: N/A\n",
      "frame= 1500 fps=6.4 q=-1.0 Lsize=  998415kB time=00:00:29.94 bitrate=273179.6kbits/s speed=0.127x    \n",
      "video:998384kB audio:0kB subtitle:0kB other streams:0kB global headers:0kB muxing overhead: 0.003157%\n",
      "[libx264 @ 0x55ef7ec92180] frame I:6     Avg QP:10.79  size:2013301\n",
      "[libx264 @ 0x55ef7ec92180] frame P:378   Avg QP:13.25  size:1104751\n",
      "[libx264 @ 0x55ef7ec92180] frame B:1116  Avg QP:16.62  size:531065\n",
      "[libx264 @ 0x55ef7ec92180] consecutive B-frames:  0.8%  0.0%  0.0% 99.2%\n",
      "[libx264 @ 0x55ef7ec92180] mb I  I16..4:  3.9% 64.2% 32.0%\n",
      "[libx264 @ 0x55ef7ec92180] mb P  I16..4:  0.1% 32.2% 14.8%  P16..4: 22.0% 10.9% 14.3%  0.0%  0.0%    skip: 5.6%\n",
      "[libx264 @ 0x55ef7ec92180] mb B  I16..4:  0.0%  2.0%  3.8%  B16..8: 30.4% 12.5%  9.0%  direct:13.9%  skip:28.5%  L0:23.1% L1:27.9% BI:49.0%\n",
      "[libx264 @ 0x55ef7ec92180] 8x8 transform intra:59.5% inter:66.5%\n",
      "[libx264 @ 0x55ef7ec92180] coded y,uvDC,uvAC intra: 99.7% 94.5% 86.4% inter: 51.3% 26.8% 5.9%\n",
      "[libx264 @ 0x55ef7ec92180] i16 v,h,dc,p: 18% 27% 17% 38%\n",
      "[libx264 @ 0x55ef7ec92180] i8 v,h,dc,ddl,ddr,vr,hd,vl,hu:  1% 60%  5%  2%  3%  1% 13%  1% 13%\n",
      "[libx264 @ 0x55ef7ec92180] i4 v,h,dc,ddl,ddr,vr,hd,vl,hu:  2% 52%  5%  2%  4%  1% 17%  1% 15%\n",
      "[libx264 @ 0x55ef7ec92180] i8c dc,h,v,p: 44% 44%  8%  4%\n",
      "[libx264 @ 0x55ef7ec92180] Weighted P-Frames: Y:0.0% UV:0.0%\n",
      "[libx264 @ 0x55ef7ec92180] ref P L0: 67.4%  7.7% 17.7%  7.2%\n",
      "[libx264 @ 0x55ef7ec92180] ref B L0: 94.3%  3.9%  1.8%\n",
      "[libx264 @ 0x55ef7ec92180] ref B L1: 98.9%  1.1%\n",
      "[libx264 @ 0x55ef7ec92180] kb/s:272625.16\n",
      "ffmpeg version N-106635-g83e1a1de88 Copyright (c) 2000-2022 the FFmpeg developers\n",
      "  built with gcc 9 (Ubuntu 9.4.0-1ubuntu1~20.04.1)\n",
      "  configuration: --prefix=/home/ubuntu/ffmpeg_build --pkg-config-flags=--static --extra-cflags=-I/home/ubuntu/ffmpeg_build/include --extra-ldflags=-L/home/ubuntu/ffmpeg_build/lib --extra-libs='-lpthread -lm' --ld=g++ --bindir=/home/ubuntu/bin --enable-gpl --enable-gnutls --enable-libaom --enable-libass --enable-libfdk-aac --enable-libfreetype --enable-libmp3lame --enable-libopus --enable-libsvtav1 --enable-libdav1d --enable-libvorbis --enable-libvpx --enable-libx264 --enable-libx265 --enable-libvmaf --enable-version3 --enable-nonfree\n",
      "  libavutil      57. 24.101 / 57. 24.101\n",
      "  libavcodec     59. 26.100 / 59. 26.100\n",
      "  libavformat    59. 22.100 / 59. 22.100\n",
      "  libavdevice    59.  6.100 / 59.  6.100\n",
      "  libavfilter     8. 33.100 /  8. 33.100\n",
      "  libswscale      6.  6.100 /  6.  6.100\n",
      "  libswresample   4.  6.100 /  4.  6.100\n",
      "  libpostproc    56.  5.100 / 56.  5.100\n",
      "[rawvideo @ 0x56130e75f4c0] Estimating duration from bitrate, this may be inaccurate\n",
      "Input #0, rawvideo, from 'test_vids/refs/forest.yuv':\n",
      "  Duration: 00:00:30.00, start: 0.000000, bitrate: 4976640 kb/s\n",
      "  Stream #0:0: Video: rawvideo (I420 / 0x30323449), yuv420p, 3840x2160, 4976640 kb/s, 50 tbr, 50 tbn\n",
      "Stream mapping:\n",
      "  Stream #0:0 -> #0:0 (rawvideo (native) -> h264 (libx264))\n",
      "Press [q] to stop, [?] for help\n",
      "[libx264 @ 0x56130e76c180] using cpu capabilities: MMX2 SSE2Fast SSSE3 SSE4.2 AVX FMA3 BMI2 AVX2\n",
      "[libx264 @ 0x56130e76c180] profile High, level 5.2\n",
      "[libx264 @ 0x56130e76c180] 264 - core 155 r2917 0a84d98 - H.264/MPEG-4 AVC codec - Copyleft 2003-2018 - http://www.videolan.org/x264.html - options: cabac=1 ref=3 deblock=1:0:0 analyse=0x3:0x113 me=hex subme=7 psy=1 psy_rd=1.00:0.00 mixed_ref=1 me_range=16 chroma_me=1 trellis=1 8x8dct=1 cqm=0 deadzone=21,11 fast_pskip=1 chroma_qp_offset=-2 threads=12 lookahead_threads=2 sliced_threads=0 nr=0 decimate=1 interlaced=0 bluray_compat=0 constrained_intra=0 bframes=3 b_pyramid=2 b_adapt=1 b_bias=0 direct=1 weightb=1 open_gop=0 weightp=2 keyint=250 keyint_min=25 scenecut=40 intra_refresh=0 rc_lookahead=40 rc=crf mbtree=1 crf=17.0 qcomp=0.60 qpmin=0 qpmax=69 qpstep=4 ip_ratio=1.40 aq=1:1.00\n",
      "Output #0, mp4, to 'test_vids/encoded/forest/forestAVC_cf17.mp4':\n",
      "  Metadata:\n",
      "    encoder         : Lavf59.22.100\n",
      "  Stream #0:0: Video: h264 (avc1 / 0x31637661), yuv420p(progressive), 3840x2160, q=2-31, 50 fps, 12800 tbn\n",
      "    Metadata:\n",
      "      encoder         : Lavc59.26.100 libx264\n",
      "    Side data:\n",
      "      cpb: bitrate max/min/avg: 0/0/0 buffer size: 0 vbv_delay: N/A\n",
      "frame= 1500 fps=8.1 q=-1.0 Lsize=  470239kB time=00:00:29.94 bitrate=128663.5kbits/s speed=0.163x        \n",
      "video:470213kB audio:0kB subtitle:0kB other streams:0kB global headers:0kB muxing overhead: 0.005335%\n",
      "[libx264 @ 0x56130e76c180] frame I:6     Avg QP:17.78  size:1056530\n",
      "[libx264 @ 0x56130e76c180] frame P:378   Avg QP:20.23  size:551537\n",
      "[libx264 @ 0x56130e76c180] frame B:1116  Avg QP:23.26  size:238959\n",
      "[libx264 @ 0x56130e76c180] consecutive B-frames:  0.8%  0.0%  0.0% 99.2%\n",
      "[libx264 @ 0x56130e76c180] mb I  I16..4:  3.6% 73.7% 22.7%\n",
      "[libx264 @ 0x56130e76c180] mb P  I16..4:  0.0% 30.1% 10.4%  P16..4: 21.9% 12.0%  7.3%  0.0%  0.0%    skip:18.1%\n",
      "[libx264 @ 0x56130e76c180] mb B  I16..4:  0.0%  1.9%  1.4%  B16..8: 28.5% 12.0%  6.4%  direct:11.8%  skip:37.9%  L0:25.5% L1:30.9% BI:43.6%\n",
      "[libx264 @ 0x56130e76c180] 8x8 transform intra:71.1% inter:72.1%\n",
      "[libx264 @ 0x56130e76c180] coded y,uvDC,uvAC intra: 99.1% 59.3% 25.5% inter: 38.3% 6.9% 0.1%\n",
      "[libx264 @ 0x56130e76c180] i16 v,h,dc,p:  5% 21%  2% 71%\n",
      "[libx264 @ 0x56130e76c180] i8 v,h,dc,ddl,ddr,vr,hd,vl,hu:  1% 58%  5%  2%  3%  1% 14%  1% 14%\n",
      "[libx264 @ 0x56130e76c180] i4 v,h,dc,ddl,ddr,vr,hd,vl,hu:  2% 51%  5%  2%  4%  1% 19%  1% 14%\n",
      "[libx264 @ 0x56130e76c180] i8c dc,h,v,p: 58% 33%  8%  2%\n",
      "[libx264 @ 0x56130e76c180] Weighted P-Frames: Y:0.0% UV:0.0%\n",
      "[libx264 @ 0x56130e76c180] ref P L0: 57.8% 12.4% 20.5%  9.4%\n",
      "[libx264 @ 0x56130e76c180] ref B L0: 95.2%  3.3%  1.5%\n",
      "[libx264 @ 0x56130e76c180] ref B L1: 98.7%  1.3%\n",
      "[libx264 @ 0x56130e76c180] kb/s:128399.45\n",
      "ffmpeg version N-106635-g83e1a1de88 Copyright (c) 2000-2022 the FFmpeg developers\n",
      "  built with gcc 9 (Ubuntu 9.4.0-1ubuntu1~20.04.1)\n",
      "  configuration: --prefix=/home/ubuntu/ffmpeg_build --pkg-config-flags=--static --extra-cflags=-I/home/ubuntu/ffmpeg_build/include --extra-ldflags=-L/home/ubuntu/ffmpeg_build/lib --extra-libs='-lpthread -lm' --ld=g++ --bindir=/home/ubuntu/bin --enable-gpl --enable-gnutls --enable-libaom --enable-libass --enable-libfdk-aac --enable-libfreetype --enable-libmp3lame --enable-libopus --enable-libsvtav1 --enable-libdav1d --enable-libvorbis --enable-libvpx --enable-libx264 --enable-libx265 --enable-libvmaf --enable-version3 --enable-nonfree\n",
      "  libavutil      57. 24.101 / 57. 24.101\n",
      "  libavcodec     59. 26.100 / 59. 26.100\n",
      "  libavformat    59. 22.100 / 59. 22.100\n",
      "  libavdevice    59.  6.100 / 59.  6.100\n",
      "  libavfilter     8. 33.100 /  8. 33.100\n",
      "  libswscale      6.  6.100 /  6.  6.100\n",
      "  libswresample   4.  6.100 /  4.  6.100\n",
      "  libpostproc    56.  5.100 / 56.  5.100\n",
      "[rawvideo @ 0x55ac1e0194c0] Estimating duration from bitrate, this may be inaccurate\n",
      "Input #0, rawvideo, from 'test_vids/refs/forest.yuv':\n",
      "  Duration: 00:00:30.00, start: 0.000000, bitrate: 4976640 kb/s\n",
      "  Stream #0:0: Video: rawvideo (I420 / 0x30323449), yuv420p, 3840x2160, 4976640 kb/s, 50 tbr, 50 tbn\n",
      "Stream mapping:\n",
      "  Stream #0:0 -> #0:0 (rawvideo (native) -> h264 (libx264))\n",
      "Press [q] to stop, [?] for help\n",
      "[libx264 @ 0x55ac1e026180] using cpu capabilities: MMX2 SSE2Fast SSSE3 SSE4.2 AVX FMA3 BMI2 AVX2\n",
      "[libx264 @ 0x55ac1e026180] profile High, level 5.2\n",
      "[libx264 @ 0x55ac1e026180] 264 - core 155 r2917 0a84d98 - H.264/MPEG-4 AVC codec - Copyleft 2003-2018 - http://www.videolan.org/x264.html - options: cabac=1 ref=3 deblock=1:0:0 analyse=0x3:0x113 me=hex subme=7 psy=1 psy_rd=1.00:0.00 mixed_ref=1 me_range=16 chroma_me=1 trellis=1 8x8dct=1 cqm=0 deadzone=21,11 fast_pskip=1 chroma_qp_offset=-2 threads=12 lookahead_threads=2 sliced_threads=0 nr=0 decimate=1 interlaced=0 bluray_compat=0 constrained_intra=0 bframes=3 b_pyramid=2 b_adapt=1 b_bias=0 direct=1 weightb=1 open_gop=0 weightp=2 keyint=250 keyint_min=25 scenecut=40 intra_refresh=0 rc_lookahead=40 rc=crf mbtree=1 crf=23.0 qcomp=0.60 qpmin=0 qpmax=69 qpstep=4 ip_ratio=1.40 aq=1:1.00\n",
      "Output #0, mp4, to 'test_vids/encoded/forest/forestAVC_cf23.mp4':\n",
      "  Metadata:\n",
      "    encoder         : Lavf59.22.100\n",
      "  Stream #0:0: Video: h264 (avc1 / 0x31637661), yuv420p(progressive), 3840x2160, q=2-31, 50 fps, 12800 tbn\n",
      "    Metadata:\n",
      "      encoder         : Lavc59.26.100 libx264\n",
      "    Side data:\n",
      "      cpb: bitrate max/min/avg: 0/0/0 buffer size: 0 vbv_delay: N/A\n"
     ]
    },
    {
     "name": "stderr",
     "output_type": "stream",
     "text": [
      "frame= 1500 fps= 10 q=-1.0 Lsize=  230840kB time=00:00:29.94 bitrate=63160.8kbits/s speed= 0.2x          \n",
      "video:230817kB audio:0kB subtitle:0kB other streams:0kB global headers:0kB muxing overhead: 0.009670%\n",
      "[libx264 @ 0x55ac1e026180] frame I:6     Avg QP:23.78  size:595205\n",
      "[libx264 @ 0x55ac1e026180] frame P:378   Avg QP:26.23  size:293835\n",
      "[libx264 @ 0x55ac1e026180] frame B:1116  Avg QP:28.14  size:109064\n",
      "[libx264 @ 0x55ac1e026180] consecutive B-frames:  0.8%  0.0%  0.0% 99.2%\n",
      "[libx264 @ 0x55ac1e026180] mb I  I16..4:  7.4% 73.2% 19.4%\n",
      "[libx264 @ 0x55ac1e026180] mb P  I16..4:  0.1% 22.1%  8.6%  P16..4: 19.5% 12.9%  5.6%  0.0%  0.0%    skip:31.2%\n",
      "[libx264 @ 0x55ac1e026180] mb B  I16..4:  0.0%  1.3%  0.5%  B16..8: 27.8% 10.6%  3.6%  direct: 8.1%  skip:48.1%  L0:33.0% L1:35.1% BI:31.9%\n",
      "[libx264 @ 0x55ac1e026180] 8x8 transform intra:71.5% inter:71.3%\n",
      "[libx264 @ 0x55ac1e026180] coded y,uvDC,uvAC intra: 95.1% 19.3% 1.2% inter: 26.0% 1.9% 0.0%\n",
      "[libx264 @ 0x55ac1e026180] i16 v,h,dc,p:  2% 50%  2% 45%\n",
      "[libx264 @ 0x55ac1e026180] i8 v,h,dc,ddl,ddr,vr,hd,vl,hu:  1% 54%  7%  2%  3%  1% 16%  1% 15%\n",
      "[libx264 @ 0x55ac1e026180] i4 v,h,dc,ddl,ddr,vr,hd,vl,hu:  2% 55%  7%  2%  4%  1% 18%  1% 11%\n",
      "[libx264 @ 0x55ac1e026180] i8c dc,h,v,p: 84% 13%  3%  0%\n",
      "[libx264 @ 0x55ac1e026180] Weighted P-Frames: Y:0.0% UV:0.0%\n",
      "[libx264 @ 0x55ac1e026180] ref P L0: 55.6% 15.2% 19.3%  9.9%\n",
      "[libx264 @ 0x55ac1e026180] ref B L0: 95.6%  3.0%  1.4%\n",
      "[libx264 @ 0x55ac1e026180] ref B L1: 99.2%  0.8%\n",
      "[libx264 @ 0x55ac1e026180] kb/s:63028.34\n",
      "ffmpeg version N-106635-g83e1a1de88 Copyright (c) 2000-2022 the FFmpeg developers\n",
      "  built with gcc 9 (Ubuntu 9.4.0-1ubuntu1~20.04.1)\n",
      "  configuration: --prefix=/home/ubuntu/ffmpeg_build --pkg-config-flags=--static --extra-cflags=-I/home/ubuntu/ffmpeg_build/include --extra-ldflags=-L/home/ubuntu/ffmpeg_build/lib --extra-libs='-lpthread -lm' --ld=g++ --bindir=/home/ubuntu/bin --enable-gpl --enable-gnutls --enable-libaom --enable-libass --enable-libfdk-aac --enable-libfreetype --enable-libmp3lame --enable-libopus --enable-libsvtav1 --enable-libdav1d --enable-libvorbis --enable-libvpx --enable-libx264 --enable-libx265 --enable-libvmaf --enable-version3 --enable-nonfree\n",
      "  libavutil      57. 24.101 / 57. 24.101\n",
      "  libavcodec     59. 26.100 / 59. 26.100\n",
      "  libavformat    59. 22.100 / 59. 22.100\n",
      "  libavdevice    59.  6.100 / 59.  6.100\n",
      "  libavfilter     8. 33.100 /  8. 33.100\n",
      "  libswscale      6.  6.100 /  6.  6.100\n",
      "  libswresample   4.  6.100 /  4.  6.100\n",
      "  libpostproc    56.  5.100 / 56.  5.100\n",
      "[rawvideo @ 0x55ce8d6534c0] Estimating duration from bitrate, this may be inaccurate\n",
      "Input #0, rawvideo, from 'test_vids/refs/forest.yuv':\n",
      "  Duration: 00:00:30.00, start: 0.000000, bitrate: 4976640 kb/s\n",
      "  Stream #0:0: Video: rawvideo (I420 / 0x30323449), yuv420p, 3840x2160, 4976640 kb/s, 50 tbr, 50 tbn\n",
      "Stream mapping:\n",
      "  Stream #0:0 -> #0:0 (rawvideo (native) -> h264 (libx264))\n",
      "Press [q] to stop, [?] for help\n",
      "[libx264 @ 0x55ce8d660180] using cpu capabilities: MMX2 SSE2Fast SSSE3 SSE4.2 AVX FMA3 BMI2 AVX2\n",
      "[libx264 @ 0x55ce8d660180] profile High, level 5.2\n",
      "[libx264 @ 0x55ce8d660180] 264 - core 155 r2917 0a84d98 - H.264/MPEG-4 AVC codec - Copyleft 2003-2018 - http://www.videolan.org/x264.html - options: cabac=1 ref=3 deblock=1:0:0 analyse=0x3:0x113 me=hex subme=7 psy=1 psy_rd=1.00:0.00 mixed_ref=1 me_range=16 chroma_me=1 trellis=1 8x8dct=1 cqm=0 deadzone=21,11 fast_pskip=1 chroma_qp_offset=-2 threads=12 lookahead_threads=2 sliced_threads=0 nr=0 decimate=1 interlaced=0 bluray_compat=0 constrained_intra=0 bframes=3 b_pyramid=2 b_adapt=1 b_bias=0 direct=1 weightb=1 open_gop=0 weightp=2 keyint=250 keyint_min=25 scenecut=40 intra_refresh=0 rc_lookahead=40 rc=crf mbtree=1 crf=29.0 qcomp=0.60 qpmin=0 qpmax=69 qpstep=4 ip_ratio=1.40 aq=1:1.00\n",
      "Output #0, mp4, to 'test_vids/encoded/forest/forestAVC_cf29.mp4':\n",
      "  Metadata:\n",
      "    encoder         : Lavf59.22.100\n",
      "  Stream #0:0: Video: h264 (avc1 / 0x31637661), yuv420p(progressive), 3840x2160, q=2-31, 50 fps, 12800 tbn\n",
      "    Metadata:\n",
      "      encoder         : Lavc59.26.100 libx264\n",
      "    Side data:\n",
      "      cpb: bitrate max/min/avg: 0/0/0 buffer size: 0 vbv_delay: N/A\n",
      "frame= 1500 fps= 13 q=-1.0 Lsize=  105046kB time=00:00:29.94 bitrate=28741.9kbits/s speed=0.257x     \n",
      "video:105026kB audio:0kB subtitle:0kB other streams:0kB global headers:0kB muxing overhead: 0.019125%\n",
      "[libx264 @ 0x55ce8d660180] frame I:6     Avg QP:29.75  size:319650\n",
      "[libx264 @ 0x55ce8d660180] frame P:378   Avg QP:32.44  size:143108\n",
      "[libx264 @ 0x55ce8d660180] frame B:1116  Avg QP:35.50  size: 46176\n",
      "[libx264 @ 0x55ce8d660180] consecutive B-frames:  0.8%  0.0%  0.0% 99.2%\n",
      "[libx264 @ 0x55ce8d660180] mb I  I16..4: 12.3% 69.2% 18.4%\n",
      "[libx264 @ 0x55ce8d660180] mb P  I16..4:  0.7% 15.3%  5.1%  P16..4: 24.1% 11.8%  4.4%  0.0%  0.0%    skip:38.5%\n",
      "[libx264 @ 0x55ce8d660180] mb B  I16..4:  0.0%  0.7%  0.1%  B16..8: 28.5%  6.6%  1.0%  direct: 3.0%  skip:60.0%  L0:38.8% L1:47.2% BI:14.0%\n",
      "[libx264 @ 0x55ce8d660180] 8x8 transform intra:73.4% inter:78.3%\n",
      "[libx264 @ 0x55ce8d660180] coded y,uvDC,uvAC intra: 78.9% 7.7% 0.3% inter: 15.3% 0.3% 0.0%\n",
      "[libx264 @ 0x55ce8d660180] i16 v,h,dc,p:  1% 82%  2% 14%\n",
      "[libx264 @ 0x55ce8d660180] i8 v,h,dc,ddl,ddr,vr,hd,vl,hu:  1% 50% 10%  2%  3%  1% 17%  1% 15%\n",
      "[libx264 @ 0x55ce8d660180] i4 v,h,dc,ddl,ddr,vr,hd,vl,hu:  2% 60% 10%  1%  3%  1% 14%  0%  8%\n",
      "[libx264 @ 0x55ce8d660180] i8c dc,h,v,p: 97%  3%  1%  0%\n",
      "[libx264 @ 0x55ce8d660180] Weighted P-Frames: Y:0.0% UV:0.0%\n",
      "[libx264 @ 0x55ce8d660180] ref P L0: 56.4% 12.1% 20.1% 11.4%\n",
      "[libx264 @ 0x55ce8d660180] ref B L0: 95.3%  3.0%  1.7%\n",
      "[libx264 @ 0x55ce8d660180] ref B L1: 99.4%  0.6%\n",
      "[libx264 @ 0x55ce8d660180] kb/s:28678.80\n",
      "ffmpeg version N-106635-g83e1a1de88 Copyright (c) 2000-2022 the FFmpeg developers\n",
      "  built with gcc 9 (Ubuntu 9.4.0-1ubuntu1~20.04.1)\n",
      "  configuration: --prefix=/home/ubuntu/ffmpeg_build --pkg-config-flags=--static --extra-cflags=-I/home/ubuntu/ffmpeg_build/include --extra-ldflags=-L/home/ubuntu/ffmpeg_build/lib --extra-libs='-lpthread -lm' --ld=g++ --bindir=/home/ubuntu/bin --enable-gpl --enable-gnutls --enable-libaom --enable-libass --enable-libfdk-aac --enable-libfreetype --enable-libmp3lame --enable-libopus --enable-libsvtav1 --enable-libdav1d --enable-libvorbis --enable-libvpx --enable-libx264 --enable-libx265 --enable-libvmaf --enable-version3 --enable-nonfree\n",
      "  libavutil      57. 24.101 / 57. 24.101\n",
      "  libavcodec     59. 26.100 / 59. 26.100\n",
      "  libavformat    59. 22.100 / 59. 22.100\n",
      "  libavdevice    59.  6.100 / 59.  6.100\n",
      "  libavfilter     8. 33.100 /  8. 33.100\n",
      "  libswscale      6.  6.100 /  6.  6.100\n",
      "  libswresample   4.  6.100 /  4.  6.100\n",
      "  libpostproc    56.  5.100 / 56.  5.100\n",
      "[rawvideo @ 0x560dfc4564c0] Estimating duration from bitrate, this may be inaccurate\n",
      "Input #0, rawvideo, from 'test_vids/refs/forest.yuv':\n",
      "  Duration: 00:00:30.00, start: 0.000000, bitrate: 4976640 kb/s\n",
      "  Stream #0:0: Video: rawvideo (I420 / 0x30323449), yuv420p, 3840x2160, 4976640 kb/s, 50 tbr, 50 tbn\n",
      "Stream mapping:\n",
      "  Stream #0:0 -> #0:0 (rawvideo (native) -> h264 (libx264))\n",
      "Press [q] to stop, [?] for help\n",
      "[libx264 @ 0x560dfc463180] using cpu capabilities: MMX2 SSE2Fast SSSE3 SSE4.2 AVX FMA3 BMI2 AVX2\n",
      "[libx264 @ 0x560dfc463180] profile High, level 5.2\n",
      "[libx264 @ 0x560dfc463180] 264 - core 155 r2917 0a84d98 - H.264/MPEG-4 AVC codec - Copyleft 2003-2018 - http://www.videolan.org/x264.html - options: cabac=1 ref=3 deblock=1:0:0 analyse=0x3:0x113 me=hex subme=7 psy=1 psy_rd=1.00:0.00 mixed_ref=1 me_range=16 chroma_me=1 trellis=1 8x8dct=1 cqm=0 deadzone=21,11 fast_pskip=1 chroma_qp_offset=-2 threads=12 lookahead_threads=2 sliced_threads=0 nr=0 decimate=1 interlaced=0 bluray_compat=0 constrained_intra=0 bframes=3 b_pyramid=2 b_adapt=1 b_bias=0 direct=1 weightb=1 open_gop=0 weightp=2 keyint=250 keyint_min=25 scenecut=40 intra_refresh=0 rc_lookahead=40 rc=crf mbtree=1 crf=35.0 qcomp=0.60 qpmin=0 qpmax=69 qpstep=4 ip_ratio=1.40 aq=1:1.00\n",
      "Output #0, mp4, to 'test_vids/encoded/forest/forestAVC_cf35.mp4':\n",
      "  Metadata:\n",
      "    encoder         : Lavf59.22.100\n",
      "  Stream #0:0: Video: h264 (avc1 / 0x31637661), yuv420p(progressive), 3840x2160, q=2-31, 50 fps, 12800 tbn\n",
      "    Metadata:\n",
      "      encoder         : Lavc59.26.100 libx264\n",
      "    Side data:\n",
      "      cpb: bitrate max/min/avg: 0/0/0 buffer size: 0 vbv_delay: N/A\n"
     ]
    },
    {
     "name": "stderr",
     "output_type": "stream",
     "text": [
      "frame= 1500 fps= 18 q=-1.0 Lsize=   43442kB time=00:00:29.94 bitrate=11886.3kbits/s speed=0.354x    \n",
      "video:43423kB audio:0kB subtitle:0kB other streams:0kB global headers:0kB muxing overhead: 0.043269%\n",
      "[libx264 @ 0x560dfc463180] frame I:6     Avg QP:35.71  size:156108\n",
      "[libx264 @ 0x560dfc463180] frame P:378   Avg QP:38.75  size: 59801\n",
      "[libx264 @ 0x560dfc463180] frame B:1116  Avg QP:41.67  size: 18749\n",
      "[libx264 @ 0x560dfc463180] consecutive B-frames:  0.8%  0.0%  0.0% 99.2%\n",
      "[libx264 @ 0x560dfc463180] mb I  I16..4: 22.9% 66.4% 10.7%\n",
      "[libx264 @ 0x560dfc463180] mb P  I16..4:  2.7% 11.6%  0.5%  P16..4: 28.3%  5.1%  2.3%  0.0%  0.0%    skip:49.4%\n",
      "[libx264 @ 0x560dfc463180] mb B  I16..4:  0.1%  0.3%  0.0%  B16..8: 25.9%  1.8%  0.1%  direct: 0.3%  skip:71.5%  L0:44.3% L1:53.7% BI: 2.0%\n",
      "[libx264 @ 0x560dfc463180] 8x8 transform intra:77.2% inter:93.0%\n",
      "[libx264 @ 0x560dfc463180] coded y,uvDC,uvAC intra: 47.5% 3.4% 0.1% inter: 6.8% 0.0% 0.0%\n",
      "[libx264 @ 0x560dfc463180] i16 v,h,dc,p:  2% 87%  3%  8%\n",
      "[libx264 @ 0x560dfc463180] i8 v,h,dc,ddl,ddr,vr,hd,vl,hu:  2% 49% 17%  2%  2%  1% 15%  1% 11%\n",
      "[libx264 @ 0x560dfc463180] i4 v,h,dc,ddl,ddr,vr,hd,vl,hu:  3% 60% 14%  1%  3%  1% 12%  1%  5%\n",
      "[libx264 @ 0x560dfc463180] i8c dc,h,v,p: 99%  1%  0%  0%\n",
      "[libx264 @ 0x560dfc463180] Weighted P-Frames: Y:0.0% UV:0.0%\n",
      "[libx264 @ 0x560dfc463180] ref P L0: 56.5%  7.8% 22.6% 13.1%\n",
      "[libx264 @ 0x560dfc463180] ref B L0: 93.2%  4.6%  2.2%\n",
      "[libx264 @ 0x560dfc463180] ref B L1: 98.6%  1.4%\n",
      "[libx264 @ 0x560dfc463180] kb/s:11857.29\n"
     ]
    }
   ],
   "source": [
    "import os\n",
    "import subprocess\n",
    "source = \"forest\"\n",
    "path = \"test_vids/refs/\" + source + \".yuv\"\n",
    "res_width = 3840\n",
    "res_height = 2160\n",
    "quality = [10, 17, 23, 29, 35]\n",
    "for current_crf in range(0,5):\n",
    "    out = \"test_vids/encoded/\" + source + \"/\" + source + \"AVC_cf\" + str(quality[current_crf]) + \".mp4\"\n",
    "    to_avc = f\"ffmpeg -f rawvideo -video_size {res_width}x{res_height} \\\n",
    "    -r 50 -pixel_format yuv420p -i {path} -c:v libx264 -crf {quality[current_crf]} {out}\"\n",
    "    subprocess.call(to_avc, shell=True)"
   ]
  },
  {
   "cell_type": "markdown",
   "id": "9d5a7062",
   "metadata": {},
   "source": [
    "## From YUV multires to H265 HEVC"
   ]
  },
  {
   "cell_type": "code",
   "execution_count": 3,
   "id": "b72f54a2",
   "metadata": {},
   "outputs": [
    {
     "name": "stderr",
     "output_type": "stream",
     "text": [
      "ffmpeg version N-106635-g83e1a1de88 Copyright (c) 2000-2022 the FFmpeg developers\n",
      "  built with gcc 9 (Ubuntu 9.4.0-1ubuntu1~20.04.1)\n",
      "  configuration: --prefix=/home/ubuntu/ffmpeg_build --pkg-config-flags=--static --extra-cflags=-I/home/ubuntu/ffmpeg_build/include --extra-ldflags=-L/home/ubuntu/ffmpeg_build/lib --extra-libs='-lpthread -lm' --ld=g++ --bindir=/home/ubuntu/bin --enable-gpl --enable-gnutls --enable-libaom --enable-libass --enable-libfdk-aac --enable-libfreetype --enable-libmp3lame --enable-libopus --enable-libsvtav1 --enable-libdav1d --enable-libvorbis --enable-libvpx --enable-libx264 --enable-libx265 --enable-libvmaf --enable-version3 --enable-nonfree\n",
      "  libavutil      57. 24.101 / 57. 24.101\n",
      "  libavcodec     59. 26.100 / 59. 26.100\n",
      "  libavformat    59. 22.100 / 59. 22.100\n",
      "  libavdevice    59.  6.100 / 59.  6.100\n",
      "  libavfilter     8. 33.100 /  8. 33.100\n",
      "  libswscale      6.  6.100 /  6.  6.100\n",
      "  libswresample   4.  6.100 /  4.  6.100\n",
      "  libpostproc    56.  5.100 / 56.  5.100\n",
      "[rawvideo @ 0x55b5997fb4c0] Estimating duration from bitrate, this may be inaccurate\n",
      "Input #0, rawvideo, from 'test_vids/refs/smithy.yuv':\n",
      "  Duration: 00:00:30.00, start: 0.000000, bitrate: 4976640 kb/s\n",
      "  Stream #0:0: Video: rawvideo (I420 / 0x30323449), yuv420p, 3840x2160, 4976640 kb/s, 50 tbr, 50 tbn\n",
      "Stream mapping:\n",
      "  Stream #0:0 -> #0:0 (rawvideo (native) -> hevc (libx265))\n",
      "Press [q] to stop, [?] for help\n",
      "x265 [info]: HEVC encoder version 3.2.1+1-b5c86a64bbbe\n",
      "x265 [info]: build info [Linux][GCC 9.3.0][64 bit] 8bit+10bit+12bit\n",
      "x265 [info]: using cpu capabilities: MMX2 SSE2Fast LZCNT SSSE3 SSE4.2 AVX FMA3 BMI2 AVX2\n",
      "x265 [info]: Main profile, Level-5.1 (Main tier)\n",
      "x265 [info]: Thread pool created using 8 threads\n",
      "x265 [info]: Slices                              : 1\n",
      "x265 [info]: frame threads / pool features       : 3 / wpp(34 rows)\n",
      "x265 [info]: Coding QT: max CU size, min CU size : 64 / 8\n",
      "x265 [info]: Residual QT: max TU size, max depth : 32 / 1 inter / 1 intra\n",
      "x265 [info]: ME / range / subpel / merge         : hex / 57 / 2 / 3\n",
      "x265 [info]: Keyframe min / max / scenecut / bias: 25 / 250 / 40 / 5.00\n",
      "x265 [info]: Lookahead / bframes / badapt        : 20 / 4 / 2\n",
      "x265 [info]: b-pyramid / weightp / weightb       : 1 / 1 / 0\n",
      "x265 [info]: References / ref-limit  cu / depth  : 3 / off / on\n",
      "x265 [info]: AQ: mode / str / qg-size / cu-tree  : 2 / 1.0 / 32 / 1\n",
      "x265 [info]: Rate Control / qCompress            : CRF-15.0 / 0.60\n",
      "x265 [info]: tools: rd=3 psy-rd=2.00 early-skip rskip signhide tmvp b-intra\n",
      "x265 [info]: tools: strong-intra-smoothing lslices=8 deblock sao\n",
      "Output #0, mp4, to 'test_vids/encoded/smithyHEVC_cf15.mp4':\n",
      "  Metadata:\n",
      "    encoder         : Lavf59.22.100\n",
      "  Stream #0:0: Video: hevc (hev1 / 0x31766568), yuv420p(progressive), 3840x2160, q=2-31, 50 fps, 12800 tbn\n",
      "    Metadata:\n",
      "      encoder         : Lavc59.26.100 libx265\n",
      "    Side data:\n",
      "      cpb: bitrate max/min/avg: 0/0/0 buffer size: 0 vbv_delay: N/A\n",
      "frame= 1500 fps=5.3 q=21.8 Lsize=  304925kB time=00:00:29.94 bitrate=83431.5kbits/s speed=0.105x     \n",
      "video:304901kB audio:0kB subtitle:0kB other streams:0kB global headers:2kB muxing overhead: 0.008038%\n",
      "x265 [info]: frame I:      6, Avg QP:13.65  kb/s: 903215.07\n",
      "x265 [info]: frame P:    383, Avg QP:15.16  kb/s: 250807.36\n",
      "x265 [info]: frame B:   1111, Avg QP:23.66  kb/s: 21067.83\n",
      "x265 [info]: Weighted P-Frames: Y:0.0% UV:0.0%\n",
      "x265 [info]: consecutive B-frames: 2.8% 0.8% 5.1% 90.5% 0.8% \n",
      "\n",
      "encoded 1500 frames in 283.89s (5.28 fps), 83256.59 kb/s, Avg QP:21.45\n",
      "ffmpeg version N-106635-g83e1a1de88 Copyright (c) 2000-2022 the FFmpeg developers\n",
      "  built with gcc 9 (Ubuntu 9.4.0-1ubuntu1~20.04.1)\n",
      "  configuration: --prefix=/home/ubuntu/ffmpeg_build --pkg-config-flags=--static --extra-cflags=-I/home/ubuntu/ffmpeg_build/include --extra-ldflags=-L/home/ubuntu/ffmpeg_build/lib --extra-libs='-lpthread -lm' --ld=g++ --bindir=/home/ubuntu/bin --enable-gpl --enable-gnutls --enable-libaom --enable-libass --enable-libfdk-aac --enable-libfreetype --enable-libmp3lame --enable-libopus --enable-libsvtav1 --enable-libdav1d --enable-libvorbis --enable-libvpx --enable-libx264 --enable-libx265 --enable-libvmaf --enable-version3 --enable-nonfree\n",
      "  libavutil      57. 24.101 / 57. 24.101\n",
      "  libavcodec     59. 26.100 / 59. 26.100\n",
      "  libavformat    59. 22.100 / 59. 22.100\n",
      "  libavdevice    59.  6.100 / 59.  6.100\n",
      "  libavfilter     8. 33.100 /  8. 33.100\n",
      "  libswscale      6.  6.100 /  6.  6.100\n",
      "  libswresample   4.  6.100 /  4.  6.100\n",
      "  libpostproc    56.  5.100 / 56.  5.100\n",
      "[rawvideo @ 0x5607558394c0] Estimating duration from bitrate, this may be inaccurate\n",
      "Input #0, rawvideo, from 'test_vids/refs/smithy.yuv':\n",
      "  Duration: 00:00:30.00, start: 0.000000, bitrate: 4976640 kb/s\n",
      "  Stream #0:0: Video: rawvideo (I420 / 0x30323449), yuv420p, 3840x2160, 4976640 kb/s, 50 tbr, 50 tbn\n",
      "Stream mapping:\n",
      "  Stream #0:0 -> #0:0 (rawvideo (native) -> hevc (libx265))\n",
      "Press [q] to stop, [?] for help\n",
      "x265 [info]: HEVC encoder version 3.2.1+1-b5c86a64bbbe\n",
      "x265 [info]: build info [Linux][GCC 9.3.0][64 bit] 8bit+10bit+12bit\n",
      "x265 [info]: using cpu capabilities: MMX2 SSE2Fast LZCNT SSSE3 SSE4.2 AVX FMA3 BMI2 AVX2\n",
      "x265 [info]: Main profile, Level-5.1 (Main tier)\n",
      "x265 [info]: Thread pool created using 8 threads\n",
      "x265 [info]: Slices                              : 1\n",
      "x265 [info]: frame threads / pool features       : 3 / wpp(34 rows)\n",
      "x265 [info]: Coding QT: max CU size, min CU size : 64 / 8\n",
      "x265 [info]: Residual QT: max TU size, max depth : 32 / 1 inter / 1 intra\n",
      "x265 [info]: ME / range / subpel / merge         : hex / 57 / 2 / 3\n",
      "x265 [info]: Keyframe min / max / scenecut / bias: 25 / 250 / 40 / 5.00\n",
      "x265 [info]: Lookahead / bframes / badapt        : 20 / 4 / 2\n",
      "x265 [info]: b-pyramid / weightp / weightb       : 1 / 1 / 0\n",
      "x265 [info]: References / ref-limit  cu / depth  : 3 / off / on\n",
      "x265 [info]: AQ: mode / str / qg-size / cu-tree  : 2 / 1.0 / 32 / 1\n",
      "x265 [info]: Rate Control / qCompress            : CRF-22.0 / 0.60\n",
      "x265 [info]: tools: rd=3 psy-rd=2.00 early-skip rskip signhide tmvp b-intra\n",
      "x265 [info]: tools: strong-intra-smoothing lslices=8 deblock sao\n",
      "Output #0, mp4, to 'test_vids/encoded/smithyHEVC_cf22.mp4':\n",
      "  Metadata:\n",
      "    encoder         : Lavf59.22.100\n",
      "  Stream #0:0: Video: hevc (hev1 / 0x31766568), yuv420p(progressive), 3840x2160, q=2-31, 50 fps, 12800 tbn\n",
      "    Metadata:\n",
      "      encoder         : Lavc59.26.100 libx265\n",
      "    Side data:\n",
      "      cpb: bitrate max/min/avg: 0/0/0 buffer size: 0 vbv_delay: N/A\n",
      "frame= 1500 fps=7.3 q=29.2 Lsize=  120383kB time=00:00:29.94 bitrate=32938.4kbits/s speed=0.145x     \n",
      "video:120360kB audio:0kB subtitle:0kB other streams:0kB global headers:2kB muxing overhead: 0.019363%\n",
      "x265 [info]: frame I:      6, Avg QP:20.65  kb/s: 479066.20\n",
      "x265 [info]: frame P:    383, Avg QP:22.37  kb/s: 104745.24\n",
      "x265 [info]: frame B:   1111, Avg QP:30.96  kb/s: 5675.17 \n",
      "x265 [info]: Weighted P-Frames: Y:0.0% UV:0.0%\n",
      "x265 [info]: consecutive B-frames: 2.8% 0.8% 5.1% 90.5% 0.8% \n",
      "\n",
      "encoded 1500 frames in 205.98s (7.28 fps), 32864.63 kb/s, Avg QP:28.72\n",
      "ffmpeg version N-106635-g83e1a1de88 Copyright (c) 2000-2022 the FFmpeg developers\n",
      "  built with gcc 9 (Ubuntu 9.4.0-1ubuntu1~20.04.1)\n",
      "  configuration: --prefix=/home/ubuntu/ffmpeg_build --pkg-config-flags=--static --extra-cflags=-I/home/ubuntu/ffmpeg_build/include --extra-ldflags=-L/home/ubuntu/ffmpeg_build/lib --extra-libs='-lpthread -lm' --ld=g++ --bindir=/home/ubuntu/bin --enable-gpl --enable-gnutls --enable-libaom --enable-libass --enable-libfdk-aac --enable-libfreetype --enable-libmp3lame --enable-libopus --enable-libsvtav1 --enable-libdav1d --enable-libvorbis --enable-libvpx --enable-libx264 --enable-libx265 --enable-libvmaf --enable-version3 --enable-nonfree\n",
      "  libavutil      57. 24.101 / 57. 24.101\n",
      "  libavcodec     59. 26.100 / 59. 26.100\n",
      "  libavformat    59. 22.100 / 59. 22.100\n",
      "  libavdevice    59.  6.100 / 59.  6.100\n",
      "  libavfilter     8. 33.100 /  8. 33.100\n",
      "  libswscale      6.  6.100 /  6.  6.100\n",
      "  libswresample   4.  6.100 /  4.  6.100\n",
      "  libpostproc    56.  5.100 / 56.  5.100\n",
      "[rawvideo @ 0x555cec6174c0] Estimating duration from bitrate, this may be inaccurate\n",
      "Input #0, rawvideo, from 'test_vids/refs/smithy.yuv':\n",
      "  Duration: 00:00:30.00, start: 0.000000, bitrate: 4976640 kb/s\n",
      "  Stream #0:0: Video: rawvideo (I420 / 0x30323449), yuv420p, 3840x2160, 4976640 kb/s, 50 tbr, 50 tbn\n",
      "Stream mapping:\n",
      "  Stream #0:0 -> #0:0 (rawvideo (native) -> hevc (libx265))\n",
      "Press [q] to stop, [?] for help\n",
      "x265 [info]: HEVC encoder version 3.2.1+1-b5c86a64bbbe\n",
      "x265 [info]: build info [Linux][GCC 9.3.0][64 bit] 8bit+10bit+12bit\n",
      "x265 [info]: using cpu capabilities: MMX2 SSE2Fast LZCNT SSSE3 SSE4.2 AVX FMA3 BMI2 AVX2\n",
      "x265 [info]: Main profile, Level-5.1 (Main tier)\n",
      "x265 [info]: Thread pool created using 8 threads\n",
      "x265 [info]: Slices                              : 1\n",
      "x265 [info]: frame threads / pool features       : 3 / wpp(34 rows)\n",
      "x265 [info]: Coding QT: max CU size, min CU size : 64 / 8\n",
      "x265 [info]: Residual QT: max TU size, max depth : 32 / 1 inter / 1 intra\n",
      "x265 [info]: ME / range / subpel / merge         : hex / 57 / 2 / 3\n",
      "x265 [info]: Keyframe min / max / scenecut / bias: 25 / 250 / 40 / 5.00\n",
      "x265 [info]: Lookahead / bframes / badapt        : 20 / 4 / 2\n",
      "x265 [info]: b-pyramid / weightp / weightb       : 1 / 1 / 0\n",
      "x265 [info]: References / ref-limit  cu / depth  : 3 / off / on\n",
      "x265 [info]: AQ: mode / str / qg-size / cu-tree  : 2 / 1.0 / 32 / 1\n",
      "x265 [info]: Rate Control / qCompress            : CRF-28.0 / 0.60\n",
      "x265 [info]: tools: rd=3 psy-rd=2.00 early-skip rskip signhide tmvp b-intra\n",
      "x265 [info]: tools: strong-intra-smoothing lslices=8 deblock sao\n",
      "Output #0, mp4, to 'test_vids/encoded/smithyHEVC_cf28.mp4':\n",
      "  Metadata:\n",
      "    encoder         : Lavf59.22.100\n",
      "  Stream #0:0: Video: hevc (hev1 / 0x31766568), yuv420p(progressive), 3840x2160, q=2-31, 50 fps, 12800 tbn\n",
      "    Metadata:\n",
      "      encoder         : Lavc59.26.100 libx265\n",
      "    Side data:\n",
      "      cpb: bitrate max/min/avg: 0/0/0 buffer size: 0 vbv_delay: N/A\n"
     ]
    },
    {
     "name": "stderr",
     "output_type": "stream",
     "text": [
      "frame= 1500 fps=8.8 q=35.5 Lsize=   52087kB time=00:00:29.94 bitrate=14251.6kbits/s speed=0.176x    \n",
      "video:52064kB audio:0kB subtitle:0kB other streams:0kB global headers:2kB muxing overhead: 0.043473%\n",
      "x265 [info]: frame I:      6, Avg QP:26.65  kb/s: 260536.60\n",
      "x265 [info]: frame P:    383, Avg QP:28.71  kb/s: 46654.96\n",
      "x265 [info]: frame B:   1111, Avg QP:37.21  kb/s: 1702.01 \n",
      "x265 [info]: Weighted P-Frames: Y:0.0% UV:0.0%\n",
      "x265 [info]: consecutive B-frames: 2.8% 0.8% 5.1% 90.5% 0.8% \n",
      "\n",
      "encoded 1500 frames in 170.32s (8.81 fps), 14215.34 kb/s, Avg QP:35.00\n",
      "ffmpeg version N-106635-g83e1a1de88 Copyright (c) 2000-2022 the FFmpeg developers\n",
      "  built with gcc 9 (Ubuntu 9.4.0-1ubuntu1~20.04.1)\n",
      "  configuration: --prefix=/home/ubuntu/ffmpeg_build --pkg-config-flags=--static --extra-cflags=-I/home/ubuntu/ffmpeg_build/include --extra-ldflags=-L/home/ubuntu/ffmpeg_build/lib --extra-libs='-lpthread -lm' --ld=g++ --bindir=/home/ubuntu/bin --enable-gpl --enable-gnutls --enable-libaom --enable-libass --enable-libfdk-aac --enable-libfreetype --enable-libmp3lame --enable-libopus --enable-libsvtav1 --enable-libdav1d --enable-libvorbis --enable-libvpx --enable-libx264 --enable-libx265 --enable-libvmaf --enable-version3 --enable-nonfree\n",
      "  libavutil      57. 24.101 / 57. 24.101\n",
      "  libavcodec     59. 26.100 / 59. 26.100\n",
      "  libavformat    59. 22.100 / 59. 22.100\n",
      "  libavdevice    59.  6.100 / 59.  6.100\n",
      "  libavfilter     8. 33.100 /  8. 33.100\n",
      "  libswscale      6.  6.100 /  6.  6.100\n",
      "  libswresample   4.  6.100 /  4.  6.100\n",
      "  libpostproc    56.  5.100 / 56.  5.100\n",
      "[rawvideo @ 0x5600545c84c0] Estimating duration from bitrate, this may be inaccurate\n",
      "Input #0, rawvideo, from 'test_vids/refs/smithy.yuv':\n",
      "  Duration: 00:00:30.00, start: 0.000000, bitrate: 4976640 kb/s\n",
      "  Stream #0:0: Video: rawvideo (I420 / 0x30323449), yuv420p, 3840x2160, 4976640 kb/s, 50 tbr, 50 tbn\n",
      "Stream mapping:\n",
      "  Stream #0:0 -> #0:0 (rawvideo (native) -> hevc (libx265))\n",
      "Press [q] to stop, [?] for help\n",
      "x265 [info]: HEVC encoder version 3.2.1+1-b5c86a64bbbe\n",
      "x265 [info]: build info [Linux][GCC 9.3.0][64 bit] 8bit+10bit+12bit\n",
      "x265 [info]: using cpu capabilities: MMX2 SSE2Fast LZCNT SSSE3 SSE4.2 AVX FMA3 BMI2 AVX2\n",
      "x265 [info]: Main profile, Level-5.1 (Main tier)\n",
      "x265 [info]: Thread pool created using 8 threads\n",
      "x265 [info]: Slices                              : 1\n",
      "x265 [info]: frame threads / pool features       : 3 / wpp(34 rows)\n",
      "x265 [info]: Coding QT: max CU size, min CU size : 64 / 8\n",
      "x265 [info]: Residual QT: max TU size, max depth : 32 / 1 inter / 1 intra\n",
      "x265 [info]: ME / range / subpel / merge         : hex / 57 / 2 / 3\n",
      "x265 [info]: Keyframe min / max / scenecut / bias: 25 / 250 / 40 / 5.00\n",
      "x265 [info]: Lookahead / bframes / badapt        : 20 / 4 / 2\n",
      "x265 [info]: b-pyramid / weightp / weightb       : 1 / 1 / 0\n",
      "x265 [info]: References / ref-limit  cu / depth  : 3 / off / on\n",
      "x265 [info]: AQ: mode / str / qg-size / cu-tree  : 2 / 1.0 / 32 / 1\n",
      "x265 [info]: Rate Control / qCompress            : CRF-34.0 / 0.60\n",
      "x265 [info]: tools: rd=3 psy-rd=2.00 early-skip rskip signhide tmvp b-intra\n",
      "x265 [info]: tools: strong-intra-smoothing lslices=8 deblock sao\n",
      "Output #0, mp4, to 'test_vids/encoded/smithyHEVC_cf34.mp4':\n",
      "  Metadata:\n",
      "    encoder         : Lavf59.22.100\n",
      "  Stream #0:0: Video: hevc (hev1 / 0x31766568), yuv420p(progressive), 3840x2160, q=2-31, 50 fps, 12800 tbn\n",
      "    Metadata:\n",
      "      encoder         : Lavc59.26.100 libx265\n",
      "    Side data:\n",
      "      cpb: bitrate max/min/avg: 0/0/0 buffer size: 0 vbv_delay: N/A\n",
      "frame= 1500 fps=9.6 q=41.8 Lsize=   20499kB time=00:00:29.94 bitrate=5608.8kbits/s speed=0.191x     \n",
      "video:20477kB audio:0kB subtitle:0kB other streams:0kB global headers:2kB muxing overhead: 0.108913%\n",
      "x265 [info]: frame I:      6, Avg QP:32.65  kb/s: 134288.27\n",
      "x265 [info]: frame P:    383, Avg QP:35.28  kb/s: 18417.97\n",
      "x265 [info]: frame B:   1111, Avg QP:43.44  kb/s: 472.57  \n",
      "x265 [info]: Weighted P-Frames: Y:0.0% UV:0.0%\n",
      "x265 [info]: consecutive B-frames: 2.8% 0.8% 5.1% 90.5% 0.8% \n",
      "\n",
      "encoded 1500 frames in 157.03s (9.55 fps), 5589.89 kb/s, Avg QP:41.32\n",
      "ffmpeg version N-106635-g83e1a1de88 Copyright (c) 2000-2022 the FFmpeg developers\n",
      "  built with gcc 9 (Ubuntu 9.4.0-1ubuntu1~20.04.1)\n",
      "  configuration: --prefix=/home/ubuntu/ffmpeg_build --pkg-config-flags=--static --extra-cflags=-I/home/ubuntu/ffmpeg_build/include --extra-ldflags=-L/home/ubuntu/ffmpeg_build/lib --extra-libs='-lpthread -lm' --ld=g++ --bindir=/home/ubuntu/bin --enable-gpl --enable-gnutls --enable-libaom --enable-libass --enable-libfdk-aac --enable-libfreetype --enable-libmp3lame --enable-libopus --enable-libsvtav1 --enable-libdav1d --enable-libvorbis --enable-libvpx --enable-libx264 --enable-libx265 --enable-libvmaf --enable-version3 --enable-nonfree\n",
      "  libavutil      57. 24.101 / 57. 24.101\n",
      "  libavcodec     59. 26.100 / 59. 26.100\n",
      "  libavformat    59. 22.100 / 59. 22.100\n",
      "  libavdevice    59.  6.100 / 59.  6.100\n",
      "  libavfilter     8. 33.100 /  8. 33.100\n",
      "  libswscale      6.  6.100 /  6.  6.100\n",
      "  libswresample   4.  6.100 /  4.  6.100\n",
      "  libpostproc    56.  5.100 / 56.  5.100\n",
      "[rawvideo @ 0x555e5e1ad4c0] Estimating duration from bitrate, this may be inaccurate\n",
      "Input #0, rawvideo, from 'test_vids/refs/smithy.yuv':\n",
      "  Duration: 00:00:30.00, start: 0.000000, bitrate: 4976640 kb/s\n",
      "  Stream #0:0: Video: rawvideo (I420 / 0x30323449), yuv420p, 3840x2160, 4976640 kb/s, 50 tbr, 50 tbn\n",
      "Stream mapping:\n",
      "  Stream #0:0 -> #0:0 (rawvideo (native) -> hevc (libx265))\n",
      "Press [q] to stop, [?] for help\n",
      "x265 [info]: HEVC encoder version 3.2.1+1-b5c86a64bbbe\n",
      "x265 [info]: build info [Linux][GCC 9.3.0][64 bit] 8bit+10bit+12bit\n",
      "x265 [info]: using cpu capabilities: MMX2 SSE2Fast LZCNT SSSE3 SSE4.2 AVX FMA3 BMI2 AVX2\n",
      "x265 [info]: Main profile, Level-5.1 (Main tier)\n",
      "x265 [info]: Thread pool created using 8 threads\n",
      "x265 [info]: Slices                              : 1\n",
      "x265 [info]: frame threads / pool features       : 3 / wpp(34 rows)\n",
      "x265 [info]: Coding QT: max CU size, min CU size : 64 / 8\n",
      "x265 [info]: Residual QT: max TU size, max depth : 32 / 1 inter / 1 intra\n",
      "x265 [info]: ME / range / subpel / merge         : hex / 57 / 2 / 3\n",
      "x265 [info]: Keyframe min / max / scenecut / bias: 25 / 250 / 40 / 5.00\n",
      "x265 [info]: Lookahead / bframes / badapt        : 20 / 4 / 2\n",
      "x265 [info]: b-pyramid / weightp / weightb       : 1 / 1 / 0\n",
      "x265 [info]: References / ref-limit  cu / depth  : 3 / off / on\n",
      "x265 [info]: AQ: mode / str / qg-size / cu-tree  : 2 / 1.0 / 32 / 1\n",
      "x265 [info]: Rate Control / qCompress            : CRF-40.0 / 0.60\n",
      "x265 [info]: tools: rd=3 psy-rd=2.00 early-skip rskip signhide tmvp b-intra\n",
      "x265 [info]: tools: strong-intra-smoothing lslices=8 deblock sao\n",
      "Output #0, mp4, to 'test_vids/encoded/smithyHEVC_cf40.mp4':\n",
      "  Metadata:\n",
      "    encoder         : Lavf59.22.100\n",
      "  Stream #0:0: Video: hevc (hev1 / 0x31766568), yuv420p(progressive), 3840x2160, q=2-31, 50 fps, 12800 tbn\n",
      "    Metadata:\n",
      "      encoder         : Lavc59.26.100 libx265\n",
      "    Side data:\n",
      "      cpb: bitrate max/min/avg: 0/0/0 buffer size: 0 vbv_delay: N/A\n",
      "frame= 1500 fps= 10 q=48.0 Lsize=    6535kB time=00:00:29.94 bitrate=1788.2kbits/s speed=0.204x    \n",
      "video:6513kB audio:0kB subtitle:0kB other streams:0kB global headers:2kB muxing overhead: 0.339223%\n",
      "x265 [info]: frame I:      6, Avg QP:38.66  kb/s: 62462.87\n",
      "x265 [info]: frame P:    383, Avg QP:42.19  kb/s: 5453.40 \n",
      "x265 [info]: frame B:   1111, Avg QP:49.63  kb/s: 181.85  \n",
      "x265 [info]: Weighted P-Frames: Y:0.0% UV:0.0%\n",
      "x265 [info]: consecutive B-frames: 2.8% 0.8% 5.1% 90.5% 0.8% \n",
      "\n",
      "encoded 1500 frames in 146.61s (10.23 fps), 1776.98 kb/s, Avg QP:47.68\n"
     ]
    }
   ],
   "source": [
    "import os\n",
    "import subprocess\n",
    "source = \"forest\"\n",
    "path = \"test_vids/refs/\" + source + \".yuv\"\n",
    "res_width = 3840\n",
    "res_height = 2160\n",
    "quality = [15, 22, 28, 34, 40]\n",
    "for current_crf in range(0,5):\n",
    "    out = \"test_vids/encoded/\" + source + \"/\" + source + \"HEVC_cf\" + str(quality[current_crf]) + \".mp4\"\n",
    "    to_avc = f\"ffmpeg -f rawvideo -video_size {res_width}x{res_height} \\\n",
    "    -r 50 -pixel_format yuv420p -i {path} -c:v libx265 -crf {quality[current_crf]} {out}\"\n",
    "    subprocess.call(to_avc, shell=True)"
   ]
  },
  {
   "cell_type": "markdown",
   "id": "5a48bd95",
   "metadata": {},
   "source": [
    "## From YUV multires to VP9 WEBM"
   ]
  },
  {
   "cell_type": "code",
   "execution_count": 4,
   "id": "fc5e42a8",
   "metadata": {},
   "outputs": [
    {
     "name": "stderr",
     "output_type": "stream",
     "text": [
      "ffmpeg version N-106635-g83e1a1de88 Copyright (c) 2000-2022 the FFmpeg developers\n",
      "  built with gcc 9 (Ubuntu 9.4.0-1ubuntu1~20.04.1)\n",
      "  configuration: --prefix=/home/ubuntu/ffmpeg_build --pkg-config-flags=--static --extra-cflags=-I/home/ubuntu/ffmpeg_build/include --extra-ldflags=-L/home/ubuntu/ffmpeg_build/lib --extra-libs='-lpthread -lm' --ld=g++ --bindir=/home/ubuntu/bin --enable-gpl --enable-gnutls --enable-libaom --enable-libass --enable-libfdk-aac --enable-libfreetype --enable-libmp3lame --enable-libopus --enable-libsvtav1 --enable-libdav1d --enable-libvorbis --enable-libvpx --enable-libx264 --enable-libx265 --enable-libvmaf --enable-version3 --enable-nonfree\n",
      "  libavutil      57. 24.101 / 57. 24.101\n",
      "  libavcodec     59. 26.100 / 59. 26.100\n",
      "  libavformat    59. 22.100 / 59. 22.100\n",
      "  libavdevice    59.  6.100 / 59.  6.100\n",
      "  libavfilter     8. 33.100 /  8. 33.100\n",
      "  libswscale      6.  6.100 /  6.  6.100\n",
      "  libswresample   4.  6.100 /  4.  6.100\n",
      "  libpostproc    56.  5.100 / 56.  5.100\n",
      "[rawvideo @ 0x557f9c14e4c0] Estimating duration from bitrate, this may be inaccurate\n",
      "Input #0, rawvideo, from 'test_vids/refs/smithy.yuv':\n",
      "  Duration: 00:00:30.00, start: 0.000000, bitrate: 4976640 kb/s\n",
      "  Stream #0:0: Video: rawvideo (I420 / 0x30323449), yuv420p, 3840x2160, 4976640 kb/s, 50 tbr, 50 tbn\n",
      "Stream mapping:\n",
      "  Stream #0:0 -> #0:0 (rawvideo (native) -> vp9 (libvpx-vp9))\n",
      "Press [q] to stop, [?] for help\n",
      "[libvpx-vp9 @ 0x557f9c15b240] v1.8.2\n",
      "Output #0, webm, to 'test_vids/encoded/smithyVP9_cf15.webm':\n",
      "  Metadata:\n",
      "    encoder         : Lavf59.22.100\n",
      "  Stream #0:0: Video: vp9, yuv420p(progressive), 3840x2160, q=2-31, 50 fps, 1k tbn\n",
      "    Metadata:\n",
      "      encoder         : Lavc59.26.100 libvpx-vp9\n",
      "    Side data:\n",
      "      cpb: bitrate max/min/avg: 0/0/0 buffer size: 0 vbv_delay: N/A\n",
      "frame= 1500 fps=1.1 q=15.0 Lsize=  401259kB time=00:00:29.98 bitrate=109639.8kbits/s speed=0.0217x    \n",
      "video:401245kB audio:0kB subtitle:0kB other streams:0kB global headers:0kB muxing overhead: 0.003338%\n",
      "ffmpeg version N-106635-g83e1a1de88 Copyright (c) 2000-2022 the FFmpeg developers\n",
      "  built with gcc 9 (Ubuntu 9.4.0-1ubuntu1~20.04.1)\n",
      "  configuration: --prefix=/home/ubuntu/ffmpeg_build --pkg-config-flags=--static --extra-cflags=-I/home/ubuntu/ffmpeg_build/include --extra-ldflags=-L/home/ubuntu/ffmpeg_build/lib --extra-libs='-lpthread -lm' --ld=g++ --bindir=/home/ubuntu/bin --enable-gpl --enable-gnutls --enable-libaom --enable-libass --enable-libfdk-aac --enable-libfreetype --enable-libmp3lame --enable-libopus --enable-libsvtav1 --enable-libdav1d --enable-libvorbis --enable-libvpx --enable-libx264 --enable-libx265 --enable-libvmaf --enable-version3 --enable-nonfree\n",
      "  libavutil      57. 24.101 / 57. 24.101\n",
      "  libavcodec     59. 26.100 / 59. 26.100\n",
      "  libavformat    59. 22.100 / 59. 22.100\n",
      "  libavdevice    59.  6.100 / 59.  6.100\n",
      "  libavfilter     8. 33.100 /  8. 33.100\n",
      "  libswscale      6.  6.100 /  6.  6.100\n",
      "  libswresample   4.  6.100 /  4.  6.100\n",
      "  libpostproc    56.  5.100 / 56.  5.100\n",
      "[rawvideo @ 0x5586c02484c0] Estimating duration from bitrate, this may be inaccurate\n",
      "Input #0, rawvideo, from 'test_vids/refs/smithy.yuv':\n",
      "  Duration: 00:00:30.00, start: 0.000000, bitrate: 4976640 kb/s\n",
      "  Stream #0:0: Video: rawvideo (I420 / 0x30323449), yuv420p, 3840x2160, 4976640 kb/s, 50 tbr, 50 tbn\n",
      "Stream mapping:\n",
      "  Stream #0:0 -> #0:0 (rawvideo (native) -> vp9 (libvpx-vp9))\n",
      "Press [q] to stop, [?] for help\n",
      "[libvpx-vp9 @ 0x5586c0255240] v1.8.2\n",
      "Output #0, webm, to 'test_vids/encoded/smithyVP9_cf20.webm':\n",
      "  Metadata:\n",
      "    encoder         : Lavf59.22.100\n",
      "  Stream #0:0: Video: vp9, yuv420p(progressive), 3840x2160, q=2-31, 50 fps, 1k tbn\n",
      "    Metadata:\n",
      "      encoder         : Lavc59.26.100 libvpx-vp9\n",
      "    Side data:\n",
      "      cpb: bitrate max/min/avg: 0/0/0 buffer size: 0 vbv_delay: N/A\n",
      "frame= 1500 fps=1.3 q=20.0 Lsize=  301432kB time=00:00:29.98 bitrate=82363.3kbits/s speed=0.0252x    \n",
      "video:301419kB audio:0kB subtitle:0kB other streams:0kB global headers:0kB muxing overhead: 0.004371%\n",
      "ffmpeg version N-106635-g83e1a1de88 Copyright (c) 2000-2022 the FFmpeg developers\n",
      "  built with gcc 9 (Ubuntu 9.4.0-1ubuntu1~20.04.1)\n",
      "  configuration: --prefix=/home/ubuntu/ffmpeg_build --pkg-config-flags=--static --extra-cflags=-I/home/ubuntu/ffmpeg_build/include --extra-ldflags=-L/home/ubuntu/ffmpeg_build/lib --extra-libs='-lpthread -lm' --ld=g++ --bindir=/home/ubuntu/bin --enable-gpl --enable-gnutls --enable-libaom --enable-libass --enable-libfdk-aac --enable-libfreetype --enable-libmp3lame --enable-libopus --enable-libsvtav1 --enable-libdav1d --enable-libvorbis --enable-libvpx --enable-libx264 --enable-libx265 --enable-libvmaf --enable-version3 --enable-nonfree\n",
      "  libavutil      57. 24.101 / 57. 24.101\n",
      "  libavcodec     59. 26.100 / 59. 26.100\n",
      "  libavformat    59. 22.100 / 59. 22.100\n",
      "  libavdevice    59.  6.100 / 59.  6.100\n",
      "  libavfilter     8. 33.100 /  8. 33.100\n",
      "  libswscale      6.  6.100 /  6.  6.100\n",
      "  libswresample   4.  6.100 /  4.  6.100\n",
      "  libpostproc    56.  5.100 / 56.  5.100\n",
      "[rawvideo @ 0x5587bdf0e4c0] Estimating duration from bitrate, this may be inaccurate\n",
      "Input #0, rawvideo, from 'test_vids/refs/smithy.yuv':\n",
      "  Duration: 00:00:30.00, start: 0.000000, bitrate: 4976640 kb/s\n",
      "  Stream #0:0: Video: rawvideo (I420 / 0x30323449), yuv420p, 3840x2160, 4976640 kb/s, 50 tbr, 50 tbn\n",
      "Stream mapping:\n",
      "  Stream #0:0 -> #0:0 (rawvideo (native) -> vp9 (libvpx-vp9))\n",
      "Press [q] to stop, [?] for help\n",
      "[libvpx-vp9 @ 0x5587bdf1b240] v1.8.2\n",
      "Output #0, webm, to 'test_vids/encoded/smithyVP9_cf25.webm':\n",
      "  Metadata:\n",
      "    encoder         : Lavf59.22.100\n",
      "  Stream #0:0: Video: vp9, yuv420p(progressive), 3840x2160, q=2-31, 50 fps, 1k tbn\n",
      "    Metadata:\n",
      "      encoder         : Lavc59.26.100 libvpx-vp9\n",
      "    Side data:\n",
      "      cpb: bitrate max/min/avg: 0/0/0 buffer size: 0 vbv_delay: N/A\n",
      "frame= 1500 fps=1.5 q=25.0 Lsize=  229275kB time=00:00:29.98 bitrate=62646.9kbits/s speed=0.0292x    \n",
      "video:229261kB audio:0kB subtitle:0kB other streams:0kB global headers:0kB muxing overhead: 0.005684%\n",
      "ffmpeg version N-106635-g83e1a1de88 Copyright (c) 2000-2022 the FFmpeg developers\n",
      "  built with gcc 9 (Ubuntu 9.4.0-1ubuntu1~20.04.1)\n",
      "  configuration: --prefix=/home/ubuntu/ffmpeg_build --pkg-config-flags=--static --extra-cflags=-I/home/ubuntu/ffmpeg_build/include --extra-ldflags=-L/home/ubuntu/ffmpeg_build/lib --extra-libs='-lpthread -lm' --ld=g++ --bindir=/home/ubuntu/bin --enable-gpl --enable-gnutls --enable-libaom --enable-libass --enable-libfdk-aac --enable-libfreetype --enable-libmp3lame --enable-libopus --enable-libsvtav1 --enable-libdav1d --enable-libvorbis --enable-libvpx --enable-libx264 --enable-libx265 --enable-libvmaf --enable-version3 --enable-nonfree\n",
      "  libavutil      57. 24.101 / 57. 24.101\n",
      "  libavcodec     59. 26.100 / 59. 26.100\n",
      "  libavformat    59. 22.100 / 59. 22.100\n",
      "  libavdevice    59.  6.100 / 59.  6.100\n",
      "  libavfilter     8. 33.100 /  8. 33.100\n",
      "  libswscale      6.  6.100 /  6.  6.100\n",
      "  libswresample   4.  6.100 /  4.  6.100\n",
      "  libpostproc    56.  5.100 / 56.  5.100\n",
      "[rawvideo @ 0x5626b5ef14c0] Estimating duration from bitrate, this may be inaccurate\n",
      "Input #0, rawvideo, from 'test_vids/refs/smithy.yuv':\n",
      "  Duration: 00:00:30.00, start: 0.000000, bitrate: 4976640 kb/s\n",
      "  Stream #0:0: Video: rawvideo (I420 / 0x30323449), yuv420p, 3840x2160, 4976640 kb/s, 50 tbr, 50 tbn\n",
      "Stream mapping:\n",
      "  Stream #0:0 -> #0:0 (rawvideo (native) -> vp9 (libvpx-vp9))\n",
      "Press [q] to stop, [?] for help\n",
      "[libvpx-vp9 @ 0x5626b5efe240] v1.8.2\n",
      "Output #0, webm, to 'test_vids/encoded/smithyVP9_cf30.webm':\n",
      "  Metadata:\n",
      "    encoder         : Lavf59.22.100\n",
      "  Stream #0:0: Video: vp9, yuv420p(progressive), 3840x2160, q=2-31, 50 fps, 1k tbn\n",
      "    Metadata:\n",
      "      encoder         : Lavc59.26.100 libvpx-vp9\n",
      "    Side data:\n",
      "      cpb: bitrate max/min/avg: 0/0/0 buffer size: 0 vbv_delay: N/A\n",
      "frame= 1500 fps=1.7 q=30.0 Lsize=  162609kB time=00:00:29.98 bitrate=44431.2kbits/s speed=0.033x    \n",
      "video:162596kB audio:0kB subtitle:0kB other streams:0kB global headers:0kB muxing overhead: 0.007914%\n",
      "ffmpeg version N-106635-g83e1a1de88 Copyright (c) 2000-2022 the FFmpeg developers\n",
      "  built with gcc 9 (Ubuntu 9.4.0-1ubuntu1~20.04.1)\n",
      "  configuration: --prefix=/home/ubuntu/ffmpeg_build --pkg-config-flags=--static --extra-cflags=-I/home/ubuntu/ffmpeg_build/include --extra-ldflags=-L/home/ubuntu/ffmpeg_build/lib --extra-libs='-lpthread -lm' --ld=g++ --bindir=/home/ubuntu/bin --enable-gpl --enable-gnutls --enable-libaom --enable-libass --enable-libfdk-aac --enable-libfreetype --enable-libmp3lame --enable-libopus --enable-libsvtav1 --enable-libdav1d --enable-libvorbis --enable-libvpx --enable-libx264 --enable-libx265 --enable-libvmaf --enable-version3 --enable-nonfree\n",
      "  libavutil      57. 24.101 / 57. 24.101\n",
      "  libavcodec     59. 26.100 / 59. 26.100\n",
      "  libavformat    59. 22.100 / 59. 22.100\n",
      "  libavdevice    59.  6.100 / 59.  6.100\n",
      "  libavfilter     8. 33.100 /  8. 33.100\n",
      "  libswscale      6.  6.100 /  6.  6.100\n",
      "  libswresample   4.  6.100 /  4.  6.100\n",
      "  libpostproc    56.  5.100 / 56.  5.100\n",
      "[rawvideo @ 0x560fda0ef4c0] Estimating duration from bitrate, this may be inaccurate\n",
      "Input #0, rawvideo, from 'test_vids/refs/smithy.yuv':\n",
      "  Duration: 00:00:30.00, start: 0.000000, bitrate: 4976640 kb/s\n",
      "  Stream #0:0: Video: rawvideo (I420 / 0x30323449), yuv420p, 3840x2160, 4976640 kb/s, 50 tbr, 50 tbn\n",
      "Stream mapping:\n",
      "  Stream #0:0 -> #0:0 (rawvideo (native) -> vp9 (libvpx-vp9))\n",
      "Press [q] to stop, [?] for help\n",
      "[libvpx-vp9 @ 0x560fda0fc240] v1.8.2\n",
      "Output #0, webm, to 'test_vids/encoded/smithyVP9_cf35.webm':\n",
      "  Metadata:\n",
      "    encoder         : Lavf59.22.100\n",
      "  Stream #0:0: Video: vp9, yuv420p(progressive), 3840x2160, q=2-31, 50 fps, 1k tbn\n",
      "    Metadata:\n",
      "      encoder         : Lavc59.26.100 libvpx-vp9\n",
      "    Side data:\n",
      "      cpb: bitrate max/min/avg: 0/0/0 buffer size: 0 vbv_delay: N/A\n"
     ]
    },
    {
     "name": "stderr",
     "output_type": "stream",
     "text": [
      "frame= 1500 fps=1.9 q=35.0 Lsize=  108292kB time=00:00:29.98 bitrate=29589.6kbits/s speed=0.0374x    \n",
      "video:108279kB audio:0kB subtitle:0kB other streams:0kB global headers:0kB muxing overhead: 0.011628%\n"
     ]
    }
   ],
   "source": [
    "import os\n",
    "import subprocess\n",
    "source = \"smithy\"\n",
    "path = \"test_vids/refs/\" + source + \".yuv\"\n",
    "res_width = 3840\n",
    "res_height = 2160\n",
    "quality = [15, 20, 25, 30, 35]\n",
    "for current_crf in range(0,5):\n",
    "    out = \"test_vids/encoded/\" + source + \"/\" + source + \"VP9_cf\" + str(quality[current_crf]) + \".webm\"\n",
    "    to_avc = f\"ffmpeg -f rawvideo -video_size {res_width}x{res_height} \\\n",
    "    -r 50 -pixel_format yuv420p -i {path} -c:v libvpx-vp9 -crf {quality[current_crf]} {out}\"\n",
    "    subprocess.call(to_avc, shell=True)"
   ]
  },
  {
   "cell_type": "code",
   "execution_count": null,
   "id": "fe3278ab",
   "metadata": {},
   "outputs": [],
   "source": []
  }
 ],
 "metadata": {
  "kernelspec": {
   "display_name": "Python 3 (ipykernel)",
   "language": "python",
   "name": "python3"
  },
  "language_info": {
   "codemirror_mode": {
    "name": "ipython",
    "version": 3
   },
   "file_extension": ".py",
   "mimetype": "text/x-python",
   "name": "python",
   "nbconvert_exporter": "python",
   "pygments_lexer": "ipython3",
   "version": "3.8.10"
  }
 },
 "nbformat": 4,
 "nbformat_minor": 5
}
